<svg width="24" height="24" viewBox="0 0 24 24" fill="none" xmlns="http://www.w3.org/2000/svg">
<path d="M12 4.11757V20.9907M12 4.11757L13.1001 3.70473C15.6036 2.76525 18.3964 2.76525 20.8999 3.70473C21.5643 3.95407 22 4.55781 22 5.22919V19.0799C22 20.0018 21.0075 20.6321 20.0951 20.2898C18.1082 19.5441 15.8918 19.5441 13.9049 20.2898L12.0137 20.9994C12.0071 21.0019 12 20.9974 12 20.9907M12 4.11757L10.8999 3.70473C8.39638 2.76525 5.60362 2.76525 3.10014 3.70473C2.43569 3.95407 2 4.55781 2 5.22919V9.69186M12 20.9907C12 20.9974 11.9929 21.0019 11.9863 20.9994L10.0951 20.2898C8.10825 19.5441 5.89175 19.5441 3.90485 20.2898C2.99247 20.6321 2 20.0018 2 19.0799V13.6172" stroke="#2B3F6C" stroke-width="1.5" stroke-linecap="round"/>
</svg>
