<svg width="24" height="24" viewBox="0 0 24 24" fill="none" xmlns="http://www.w3.org/2000/svg">
<path fill-rule="evenodd" clip-rule="evenodd" d="M13.5137 3.80589C14.5869 2.73113 16.3274 2.73047 17.4013 3.80442L19.8932 6.29627C20.958 7.36105 20.969 9.08481 19.918 10.1632L10.6849 19.6364C9.97933 20.3603 9.01167 20.7685 8.00123 20.7684L5.07064 20.7683C3.88871 20.7683 2.94481 19.783 2.99452 18.6012L3.05279 17.2161L3.11105 15.8309L3.12018 15.6138C3.15968 14.6747 3.54996 13.7847 4.21379 13.1199L6.27274 11.0578C6.56541 10.7647 7.04011 10.7645 7.333 11.0574C7.6259 11.3503 7.62607 11.8254 7.3334 12.1185L5.27445 14.1806C4.87615 14.5795 4.64198 15.1135 4.61829 15.6769L4.60915 15.894L4.55089 17.2792L4.49263 18.6643C4.47879 18.9934 4.74161 19.2677 5.0707 19.2678L8.0013 19.2679C8.60756 19.2679 9.18815 19.023 9.61147 18.5887L16.1442 11.8861L14.3556 10.0975C14.0627 9.80464 14.0627 9.32977 14.3556 9.03687C14.6485 8.74398 15.1234 8.74398 15.4163 9.03687L17.1912 10.8118L18.8446 9.11542C19.3223 8.62525 19.3173 7.84172 18.8333 7.35773L16.3415 4.86588C15.8533 4.37772 15.0622 4.37802 14.5744 4.86655L10.2181 9.22942C9.92544 9.52254 9.45075 9.52272 9.15785 9.22982C8.86496 8.93693 8.86478 8.46187 9.15745 8.16876L13.5137 3.80589ZM20.5148 20.6951C20.9289 20.6951 21.2645 20.3592 21.2645 19.9449C21.2645 19.5305 20.9289 19.1946 20.5148 19.1946H14.3931C13.979 19.1946 13.6434 19.5305 13.6434 19.9449C13.6434 20.3592 13.979 20.6951 14.3931 20.6951H20.5148Z" fill="#2B3F6C"/>
</svg>
