<svg width="24" height="24" viewBox="0 0 24 24" fill="none" xmlns="http://www.w3.org/2000/svg">
<path fill-rule="evenodd" clip-rule="evenodd" d="M11.25 3.03505L11.1634 3.00254C8.49001 1.99932 5.51001 1.99932 2.83664 3.00254C1.90174 3.35338 1.25001 4.22219 1.25001 5.22919V19.0799C1.25001 20.5948 2.83233 21.4933 4.16836 20.9919C5.98538 20.3101 8.01463 20.3101 9.83165 20.9919L11.25 21.5242V3.03505ZM12.75 21.5242L14.1684 20.9919C15.9854 20.3101 18.0146 20.3101 19.8316 20.9919C21.1677 21.4933 22.75 20.5948 22.75 19.0799V5.22919C22.75 4.22219 22.0983 3.35338 21.1634 3.00254C18.49 1.99932 15.51 1.99932 12.8366 3.00254L12.75 3.03505V21.5242Z" fill="#2B3F6C"/>
</svg>
