<svg width="24" height="24" viewBox="0 0 24 24" fill="none" xmlns="http://www.w3.org/2000/svg">
<path fill-rule="evenodd" clip-rule="evenodd" d="M9.35525 1.57796C10.2021 1.36366 11.0883 1.25 12 1.25C12.9118 1.25 13.7981 1.36368 14.645 1.578C15.3362 1.75292 15.6931 2.34983 15.8079 2.84603C15.9439 3.43381 16.3128 3.96329 16.8751 4.28798C17.3922 4.5865 17.9768 4.65663 18.5159 4.52952C19.0114 4.41269 19.7033 4.46835 20.1663 5.00871C21.0272 6.01337 21.7063 7.17937 22.1518 8.45569C22.4178 9.21767 22.0057 9.90381 21.5705 10.2624C21.0682 10.6762 20.75 11.3006 20.75 12C20.75 12.6994 21.0682 13.3238 21.5705 13.7376C22.0057 14.0962 22.4178 14.7823 22.1518 15.5443C21.7063 16.8205 21.0273 17.9864 20.1666 18.991C19.7036 19.5314 19.0116 19.587 18.516 19.4702C17.9768 19.343 17.3922 19.4131 16.8751 19.7117C16.3127 20.0364 15.9438 20.566 15.8078 21.1538C15.693 21.6501 15.3361 22.2471 14.6449 22.422C13.798 22.6363 12.9117 22.75 12 22.75C11.0884 22.75 10.2022 22.6363 9.35533 22.4221C8.66405 22.2471 8.30714 21.6501 8.19237 21.1538C8.0564 20.566 7.68752 20.0364 7.12508 19.7117C6.60796 19.4131 6.0233 19.343 5.4841 19.4702C4.98853 19.5871 4.29655 19.5314 3.8335 18.991C2.97276 17.9864 2.29378 16.8205 1.84825 15.5443C1.58224 14.7823 1.99439 14.0962 2.42956 13.7376C2.93188 13.3238 3.25007 12.6994 3.25007 12C3.25007 11.3006 2.93188 10.6762 2.42956 10.2623C1.99439 9.9038 1.58224 9.21766 1.84825 8.45567C2.29383 7.17934 2.97292 6.01334 3.83379 5.00867C4.29681 4.4683 4.9887 4.41265 5.48423 4.5295C6.0234 4.65664 6.60801 4.58651 7.12508 4.28798C7.68746 3.96329 8.05632 3.43379 8.19232 2.84601C8.30714 2.3498 8.66404 1.75286 9.35525 1.57796ZM12 15C10.3432 15 9.00002 13.6569 9.00002 12C9.00002 10.3431 10.3432 9 12 9C13.6569 9 15 10.3431 15 12C15 13.6569 13.6569 15 12 15Z" fill="#2B3F6C"/>
</svg>
