<svg width="24" height="24" viewBox="0 0 24 24" fill="none" xmlns="http://www.w3.org/2000/svg">
<path fill-rule="evenodd" clip-rule="evenodd" d="M12 2.25C6.61522 2.25 2.25 6.61522 2.25 12C2.25 17.3848 6.61522 21.75 12 21.75C17.3848 21.75 21.75 17.3848 21.75 12C21.75 6.61522 17.3848 2.25 12 2.25Z" fill="#ACACAC"/>
<path fill-rule="evenodd" clip-rule="evenodd" d="M12 6.25C9.92893 6.25 8.25 7.92893 8.25 10C8.25 12.0711 9.92893 13.75 12 13.75C14.0711 13.75 15.75 12.0711 15.75 10C15.75 7.92893 14.0711 6.25 12 6.25Z" fill="#F9F9F9"/>
<path fill-rule="evenodd" clip-rule="evenodd" d="M18.8774 18.9111L18.7138 18.6263L18.7127 18.6245C17.3738 16.3099 14.8695 14.75 12 14.75C9.31108 14.75 6.94246 16.12 5.55368 18.1966C5.46042 18.3361 5.37154 18.4788 5.28726 18.6245L5.28726 18.6245L5.28617 18.6263L5.12256 18.9111C6.88561 20.6656 9.31617 21.75 12 21.75C14.6838 21.75 17.1144 20.6656 18.8774 18.9111Z" fill="#F9F9F9"/>
</svg>
